<svg xmlns="http://www.w3.org/2000/svg" viewBox="0 0 64 64">
  <!-- Potato-moon crescent shape -->
  <defs>
    <linearGradient id="potatoGrad" x1="0%" y1="0%" x2="100%" y2="100%">
      <stop offset="0%" style="stop-color:#F4D03F"/>
      <stop offset="50%" style="stop-color:#D4A529"/>
      <stop offset="100%" style="stop-color:#B8860B"/>
    </linearGradient>
  </defs>
  
  <!-- Main crescent potato shape -->
  <path d="M 45 8 
           C 60 15, 62 45, 48 56 
           C 38 63, 20 60, 12 48 
           C 4 36, 8 18, 22 10 
           C 30 5, 38 5, 45 8
           C 35 12, 28 22, 28 32
           C 28 42, 35 52, 45 54
           C 52 48, 55 38, 52 28
           C 50 18, 48 12, 45 8 Z" 
        fill="url(#potatoGrad)" 
        stroke="#8B7355" 
        stroke-width="1"/>
  
  <!-- Potato spots/dimples -->
  <ellipse cx="18" cy="28" rx="3" ry="2" fill="#C4A030" opacity="0.6"/>
  <ellipse cx="24" cy="42" rx="2.5" ry="2" fill="#C4A030" opacity="0.5"/>
  <ellipse cx="15" cy="38" rx="2" ry="1.5" fill="#C4A030" opacity="0.5"/>
  <ellipse cx="30" cy="22" rx="2" ry="1.5" fill="#C4A030" opacity="0.4"/>
  <ellipse cx="20" cy="18" rx="1.5" ry="1" fill="#C4A030" opacity="0.4"/>
  
  <!-- Subtle highlight -->
  <path d="M 22 12 C 28 10, 35 12, 38 16" 
        stroke="#FFF8DC" 
        stroke-width="2" 
        fill="none" 
        opacity="0.4"
        stroke-linecap="round"/>
</svg>
